<svg id="Ebene_1" data-name="Ebene 1" xmlns="http://www.w3.org/2000/svg" viewBox="0 0 321.66 122.4"><defs><style>.cls-1{fill:#ff6d2d;}</style></defs><path class="cls-1" d="M399.9,303.41v1.51L388,320h12.14v1.47H386.09V320L398,304.87H386.9v-1.46Z" transform="translate(-255.69 -223.13)"/><path class="cls-1" d="M404.28,303.41v18.06h-1.72V303.41Z" transform="translate(-255.69 -223.13)"/><path class="cls-1" d="M408.28,303.41l5.86,16.16h.05L420,303.41h1.82l-6.7,18.06h-2l-6.67-18.06Z" transform="translate(-255.69 -223.13)"/><path class="cls-1" d="M425.69,303.41v18.06H424V303.41Z" transform="translate(-255.69 -223.13)"/><path class="cls-1" d="M431.42,303.41V320h10.11v1.47H429.7V303.41Z" transform="translate(-255.69 -223.13)"/><path class="cls-1" d="M453.82,303.41v1.46h-6.3v16.6H445.8v-16.6h-6.28v-1.46Z" transform="translate(-255.69 -223.13)"/><path class="cls-1" d="M468.41,303.41v1.46H457.66v6.53h10.07v1.47H457.66V320h10.88v1.47h-12.6V303.41Z" transform="translate(-255.69 -223.13)"/><path class="cls-1" d="M483.49,307a5.09,5.09,0,0,0-1.27-1.38,5.68,5.68,0,0,0-1.64-.85,6.21,6.21,0,0,0-1.88-.29,6.47,6.47,0,0,0-3.09.69A6.08,6.08,0,0,0,473.5,307a7.87,7.87,0,0,0-1.22,2.54,11,11,0,0,0,0,5.8,8,8,0,0,0,1.22,2.56,6.18,6.18,0,0,0,2.11,1.81,6.59,6.59,0,0,0,3.09.68,5.35,5.35,0,0,0,2.27-.46,5.21,5.21,0,0,0,1.75-1.24,6.42,6.42,0,0,0,1.19-1.83,7.91,7.91,0,0,0,.58-2.26h1.72a9.72,9.72,0,0,1-.79,3,7.27,7.27,0,0,1-1.56,2.27,6.47,6.47,0,0,1-2.27,1.44,7.86,7.86,0,0,1-2.89.51,8.57,8.57,0,0,1-3.73-.77A7.75,7.75,0,0,1,472.3,319a8.87,8.87,0,0,1-1.6-3,12.25,12.25,0,0,1,0-7.13,9,9,0,0,1,1.6-3A7.54,7.54,0,0,1,475,303.8a8.43,8.43,0,0,1,3.73-.77,8.22,8.22,0,0,1,2.51.38,7.19,7.19,0,0,1,2.23,1.12,6.7,6.7,0,0,1,1.67,1.84,6.28,6.28,0,0,1,.85,2.5h-1.72A6.15,6.15,0,0,0,483.49,307Z" transform="translate(-255.69 -223.13)"/><path class="cls-1" d="M490.81,303.41v7.84h10.73v-7.84h1.72v18.06h-1.72v-8.76H490.81v8.76h-1.72V303.41Z" transform="translate(-255.69 -223.13)"/><path class="cls-1" d="M509.11,303.41l10.52,15.27h0V303.41h1.72v18.06h-1.92L509,306.19h-.05v15.28h-1.72V303.41Z" transform="translate(-255.69 -223.13)"/><path class="cls-1" d="M527.1,303.41v18.06h-1.72V303.41Z" transform="translate(-255.69 -223.13)"/><path class="cls-1" d="M532.83,303.41v9.71l10.49-9.71h2.33l-8.07,7.46,8.45,10.6H543.8l-7.51-9.41-3.46,3.21v6.2h-1.72V303.41Z" transform="translate(-255.69 -223.13)"/><path class="cls-1" d="M560.51,303.41v1.46H549.76v6.53h10.07v1.47H549.76V320h10.88v1.47H548V303.41Z" transform="translate(-255.69 -223.13)"/><path class="cls-1" d="M571.38,303.41a8,8,0,0,1,2.11.27,5.19,5.19,0,0,1,1.75.85,4.09,4.09,0,0,1,1.18,1.47,4.65,4.65,0,0,1,.45,2.11,5.1,5.1,0,0,1-.89,3,4,4,0,0,1-2.63,1.61v.05a4.31,4.31,0,0,1,1.47.47,3,3,0,0,1,.95.88,3.64,3.64,0,0,1,.53,1.22,8.73,8.73,0,0,1,.21,1.51c0,.3,0,.67,0,1.11s.06.88.11,1.33a8,8,0,0,0,.24,1.26,2.37,2.37,0,0,0,.44.93h-1.9a2.36,2.36,0,0,1-.24-.62,4.81,4.81,0,0,1-.12-.76c0-.26-.05-.52-.07-.77s0-.48,0-.66c0-.64-.09-1.28-.16-1.91a5.52,5.52,0,0,0-.48-1.7,3.09,3.09,0,0,0-1.07-1.2,3.18,3.18,0,0,0-1.91-.4h-6.52v8h-1.72V303.41Zm-.13,8.57a4.67,4.67,0,0,0,1.5-.24A3.55,3.55,0,0,0,574,311a3.29,3.29,0,0,0,.85-1.1,3.32,3.32,0,0,0,.32-1.48,3.57,3.57,0,0,0-1-2.63,4,4,0,0,0-2.94-1h-6.42V312Z" transform="translate(-255.69 -223.13)"/><path class="cls-1" d="M402,345.18l-.23-3.29h-.05a6.37,6.37,0,0,1-1.12,1.66,6.13,6.13,0,0,1-1.48,1.13,6.5,6.5,0,0,1-1.74.65,9.14,9.14,0,0,1-1.9.2,8.64,8.64,0,0,1-3.74-.77,7.59,7.59,0,0,1-2.66-2.06,8.87,8.87,0,0,1-1.6-3,12.25,12.25,0,0,1,0-7.13,9,9,0,0,1,1.6-3,7.73,7.73,0,0,1,2.66-2.07,8.64,8.64,0,0,1,3.74-.77,9.43,9.43,0,0,1,2.68.38,6.78,6.78,0,0,1,3.92,3,7.36,7.36,0,0,1,.93,2.6h-1.72a4,4,0,0,0-.52-1.58,5.38,5.38,0,0,0-1.19-1.45,6,6,0,0,0-1.78-1.08,6.35,6.35,0,0,0-2.32-.41,6.47,6.47,0,0,0-3.09.68,6.08,6.08,0,0,0-2.11,1.81,7.76,7.76,0,0,0-1.22,2.54,11,11,0,0,0,0,5.8,7.68,7.68,0,0,0,1.22,2.56,6.18,6.18,0,0,0,2.11,1.81,6.59,6.59,0,0,0,3.09.68,6.78,6.78,0,0,0,2.66-.49,5.55,5.55,0,0,0,2-1.38,5.76,5.76,0,0,0,1.21-2.1,7.86,7.86,0,0,0,.38-2.66h-6.14V336h7.66v9.18Z" transform="translate(-255.69 -223.13)"/><path class="cls-1" d="M409.4,327.12l6,15.83,6.23-15.83h2.53v18.06h-1.72V329.57h-.05l-6.18,15.61h-1.61l-5.95-15.61h-.05v15.61h-1.72V327.12Z" transform="translate(-255.69 -223.13)"/><path class="cls-1" d="M435.67,327.12a11.14,11.14,0,0,1,2.19.21,5.44,5.44,0,0,1,1.85.74,3.86,3.86,0,0,1,1.27,1.36,4.7,4.7,0,0,1,.26,3.49,4.32,4.32,0,0,1-.65,1.22,4.12,4.12,0,0,1-1,.92,3.6,3.6,0,0,1-1.27.53v.05a4.25,4.25,0,0,1,2.78,1.43,4.39,4.39,0,0,1,1,3,7.29,7.29,0,0,1-.08,1,4.84,4.84,0,0,1-.3,1.11,4.55,4.55,0,0,1-.66,1.13,4,4,0,0,1-1.15,1,6.61,6.61,0,0,1-1.77.68,10.23,10.23,0,0,1-2.52.27H428V327.12Zm0,7.92a6,6,0,0,0,1.8-.24,3.76,3.76,0,0,0,1.26-.66,2.74,2.74,0,0,0,.76-1,2.79,2.79,0,0,0,.25-1.19c0-2.25-1.35-3.38-4.07-3.38h-5.92V335Zm0,8.67a9.63,9.63,0,0,0,1.82-.16A4.11,4.11,0,0,0,439,343a3,3,0,0,0,1-1.15,3.88,3.88,0,0,0,.38-1.81,3,3,0,0,0-1.23-2.62,6.05,6.05,0,0,0-3.53-.87h-5.92v7.21Z" transform="translate(-255.69 -223.13)"/><path class="cls-1" d="M447,327.12V335h10.72v-7.84h1.72v18.06h-1.72v-8.75H447v8.75h-1.72V327.12Z" transform="translate(-255.69 -223.13)"/><path class="cls-1" d="M269.62,281.79V251.15h0a14.09,14.09,0,1,1,28.17,0h0v30.64h13.93V251.15h0a14.08,14.08,0,0,1,27-5.68h14.55a28,28,0,0,0-48.48-12.78,28,28,0,0,0-49.06,18.46h0v30.64Z" transform="translate(-255.69 -223.13)"/><path class="cls-1" d="M339.24,255.32c0,.12,0,.25,0,.37v61.12a14.1,14.1,0,0,1-21.6,11.92L312,323.65l-9.87,9.86,7,6.26.4.27a28,28,0,0,0,43.68-23.23V255.69c0-.12,0-.25,0-.37Z" transform="translate(-255.69 -223.13)"/><path class="cls-1" d="M377,304.82V238.23h15.1a14.09,14.09,0,0,1,2.45,28,14.3,14.3,0,0,1-2.45.21h-5.35v13.93h6.53a8.17,8.17,0,0,0,1.11-.09c.86-.07,1.72-.18,2.57-.33a28,28,0,0,0-4.86-55.61H370a7,7,0,0,0-7,7v73.55Z" transform="translate(-255.69 -223.13)"/></svg>