<svg xmlns="http://www.w3.org/2000/svg" xmlns:xlink="http://www.w3.org/1999/xlink" id="Layer_1" x="0px" y="0px" viewBox="0 0 50.7 60.2" style="enable-background:new 0 0 50.7 60.2;" xml:space="preserve"><style type="text/css">	.st0{fill:#F29B20;}	.st1{fill:#FFFFFF;}	.st2{fill:#010101;}	.st3{fill:#F29B22;}	.st4{display:none;}	.st5{display:inline;}</style><path class="st0" d="M38.6,43.8c0.4-4.7,2-7,5-10.4c3-3.4,7.7-12.3,3.2-21.8C42.2,2.1,30-0.5,22.9,0.7C15.9,2,12.3,6,11,9.6 c-0.9,1.5-3.7,8.9-3.5,10.4c0.1,1.1,0.5,2.3-0.7,3.3c-1.2,0.9-2.3,2.3-3.2,3.5c-1,1.2-2.2,2.3-1,3.6c1.2,1.3,2.6,0.9,2.5,2 c-0.2,1.1-1.3,1.2-0.8,2.5c0.5,1.3,1.3,1.4,1.3,1.4s-1,1.3-0.5,2c0.5,0.7,1.2,0.8,0.9,1.6c-0.3,0.8-2,3.4-0.3,5.5 c1.7,2.1,6.7,1.7,7.9,1.4c1.2-0.3,2-0.9,2.2,1.3c0.2,2.1,1.7,3.4,1.8,4.5c0.1,1.1-0.1,2.1,0.5,3.8c0,1-0.3,2.2-0.8,3.4h28 c-0.7-1.3-1.3-2.4-1.8-3.4C41.3,52.4,38.2,47.9,38.6,43.8z M41.3,19.5c1,0,1.8,0.8,1.8,1.8c0,1-0.8,1.8-1.8,1.8 c-1,0-1.8-0.8-1.8-1.8C39.5,20.3,40.3,19.5,41.3,19.5z M37.1,15.3c1,0,1.8,0.8,1.8,1.8c0,1-0.8,1.8-1.8,1.8c-1,0-1.8-0.8-1.8-1.8 C35.3,16.1,36.1,15.3,37.1,15.3z M34.7,12.8c0,1-0.8,1.8-1.8,1.8c-1,0-1.8-0.8-1.8-1.8c0-1,0.8-1.8,1.8-1.8 C33.9,11,34.7,11.8,34.7,12.8z M32.9,27.4c-1,0-1.8-0.8-1.8-1.8c0-1,0.8-1.8,1.8-1.8c1,0,1.8,0.8,1.8,1.8 C34.7,26.6,33.9,27.4,32.9,27.4z M34.7,29.8c0,1-0.8,1.8-1.8,1.8c-1,0-1.8-0.8-1.8-1.8c0-1,0.8-1.8,1.8-1.8 C33.9,28,34.7,28.8,34.7,29.8z M32.9,23.1c-1,0-1.8-0.8-1.8-1.8c0-1,0.8-1.8,1.8-1.8c1,0,1.8,0.8,1.8,1.8 C34.7,22.3,33.9,23.1,32.9,23.1z M32.9,18.9c-1,0-1.8-0.8-1.8-1.8c0-1,0.8-1.8,1.8-1.8c1,0,1.8,0.8,1.8,1.8 C34.7,18.1,33.9,18.9,32.9,18.9z M28.7,11c1,0,1.8,0.8,1.8,1.8c0,1-0.8,1.8-1.8,1.8c-1,0-1.8-0.8-1.8-1.8C26.9,11.8,27.7,11,28.7,11 z M28.7,15.3c1,0,1.8,0.8,1.8,1.8c0,1-0.8,1.8-1.8,1.8c-1,0-1.8-0.8-1.8-1.8C26.9,16.1,27.7,15.3,28.7,15.3z M28.7,19.5 c1,0,1.8,0.8,1.8,1.8c0,1-0.8,1.8-1.8,1.8c-1,0-1.8-0.8-1.8-1.8C26.9,20.3,27.7,19.5,28.7,19.5z M28.7,23.7c1,0,1.8,0.8,1.8,1.8 c0,1-0.8,1.8-1.8,1.8c-1,0-1.8-0.8-1.8-1.8C26.9,24.5,27.7,23.7,28.7,23.7z M28.7,28c1,0,1.8,0.8,1.8,1.8c0,1-0.8,1.8-1.8,1.8 c-1,0-1.8-0.8-1.8-1.8C26.9,28.8,27.7,28,28.7,28z M20.3,23.1c-1,0-1.8-0.8-1.8-1.8c0-1,0.8-1.8,1.8-1.8c1,0,1.8,0.8,1.8,1.8 C22.1,22.3,21.3,23.1,20.3,23.1z M24.5,23.1c-1,0-1.8-0.8-1.8-1.8c0-1,0.8-1.8,1.8-1.8c1,0,1.8,0.8,1.8,1.8 C26.3,22.3,25.5,23.1,24.5,23.1z M24.5,18.9c-1,0-1.8-0.8-1.8-1.8c0-1,0.8-1.8,1.8-1.8c1,0,1.8,0.8,1.8,1.8 C26.3,18.1,25.5,18.9,24.5,18.9z M28.7,32.2c1,0,1.8,0.8,1.8,1.8c0,1-0.8,1.8-1.8,1.8c-1,0-1.8-0.8-1.8-1.8 C26.9,33,27.7,32.2,28.7,32.2z M28.8,40.2c-1,0-1.8-0.8-1.8-1.8c0-1,0.8-1.8,1.8-1.8c1,0,1.8,0.8,1.8,1.8 C30.6,39.4,29.8,40.2,28.8,40.2z M29,8.6c0-1,0.8-1.8,1.8-1.8c1,0,1.8,0.8,1.8,1.8c0,1-0.8,1.8-1.8,1.8C29.8,10.4,29,9.6,29,8.6z  M32.9,32.2c1,0,1.8,0.8,1.8,1.8c0,1-0.8,1.8-1.8,1.8c-1,0-1.8-0.8-1.8-1.8C31.1,33,31.9,32.2,32.9,32.2z M33,40.2 c-1,0-1.8-0.8-1.8-1.8c0-1,0.8-1.8,1.8-1.8c1,0,1.8,0.8,1.8,1.8C34.8,39.4,34,40.2,33,40.2z M37.1,23.1c-1,0-1.8-0.8-1.8-1.8 c0-1,0.8-1.8,1.8-1.8c1,0,1.8,0.8,1.8,1.8C38.9,22.3,38.1,23.1,37.1,23.1z"></path></svg>